<svg width="57" height="53" viewBox="0 0 57 53" fill="none" xmlns="http://www.w3.org/2000/svg">
<path d="M53.7942 50.9508L53.5454 37.297L2.38281 38.236L2.61552 51.1449L53.7942 50.9508Z" fill="#CAAA8D"/>
<path d="M8.91526 7.75882C8.9955 8.06787 9.07976 8.37692 9.15599 8.68994C9.25629 8.99503 9.36462 9.29219 9.47294 9.59332C9.58127 9.89445 9.69361 10.1956 9.79793 10.4967C10.2834 11.6814 10.8772 12.8186 11.5713 13.8923C12.2654 14.9661 13.0598 15.9725 13.9425 16.8917C15.7038 18.7421 17.8142 20.2239 20.1251 21.2581C22.4361 22.2922 24.9397 22.8746 27.4874 22.9341C30.0311 23.0054 32.5868 22.5458 34.986 21.6107C37.3853 20.6756 39.6241 19.269 41.5338 17.4385C43.3353 15.7387 44.8318 13.6823 45.9472 11.412C47.0625 9.14163 47.7968 6.65733 48.0816 4.09774C41.9832 3.9551 32.8516 3.7451 24.8273 3.55888C16.7991 3.37266 8.09277 2.92493 8.09277 2.92493C8.10481 4.09774 8.35356 5.51621 8.63842 6.65336C8.63842 6.65336 8.83502 7.44977 8.91526 7.75882Z" fill="#EACC9C"/>
<path d="M56.1818 27.5024H0V30.8703H56.1818V27.5024Z" fill="#0D0802"/>
<path d="M0 51.8977L56.1818 52.1632V49.3104L2.42734 49.5046L2.1826 35.9419L56.1818 35.0425L0.32097 34.1074L0 51.8977Z" fill="#0D0802"/>
<path d="M52.3302 0.5V1.2132C52.2018 7.16443 49.6501 12.9968 45.333 17.2047C43.1825 19.3165 40.5706 21.052 37.7822 22.2169C34.9898 23.3897 31.8884 24.0474 28.8151 24.1108C25.7218 24.1742 22.5763 23.6314 19.7076 22.5616C16.8148 21.4838 14.0706 19.8158 11.7756 17.7396C9.47667 15.6634 7.54684 13.0919 6.18673 10.2946C4.9871 7.83008 4.21677 5.11993 3.95598 2.45733L3.94395 2.33054C3.8958 1.85507 3.84766 1.36772 3.84766 0.931881C4.46552 0.931881 5.92995 0.923956 8.00422 0.916032V0.959616C8.01625 2.00564 8.2289 3.39241 8.594 4.7673C8.594 4.7673 8.80263 5.5637 8.88689 5.87671L8.93102 6.03124C9.00324 6.28878 9.07546 6.54236 9.13965 6.79991C9.25199 7.13273 9.36834 7.43386 9.48469 7.73895L9.54889 7.9014C9.64117 8.14706 9.73746 8.38875 9.82572 8.63441C10.3513 9.85477 10.9933 11.0157 11.7355 12.1013C12.4858 13.1989 13.3403 14.2251 14.2792 15.1483C16.1649 17.0264 18.3956 18.5162 20.9152 19.5859C23.4469 20.6557 26.1029 21.2303 28.8151 21.2857C31.5393 21.3571 34.2475 20.9054 36.8594 19.9386C39.4874 18.9678 41.8505 17.5454 43.8847 15.703C45.8105 13.9834 47.4033 11.927 48.619 9.58534C49.8346 7.24368 50.605 4.74352 50.9059 2.16016L50.946 1.80357L50.5809 1.79564C44.1414 1.653 34.4923 1.44301 26.0146 1.25678C21.8942 1.16565 17.5731 1.01112 14.235 0.880372C25.1922 0.828863 41.9388 0.713959 51.6722 0.507924L52.3302 0.5Z" fill="#0D0802"/>
</svg>
