<svg width="156" height="42" viewBox="0 0 156 42" fill="none" xmlns="http://www.w3.org/2000/svg">
<path d="M144.112 0.915161C138.194 0.915161 132.2 5.02001 132.2 12.8691C132.2 20.7183 138.375 24.8231 144.112 24.8231C149.85 24.8231 156 20.7183 156 12.8691C156 5.02001 149.837 0.915161 144.112 0.915161ZM144.112 23.3333C139.847 23.3333 137.304 19.4226 137.304 12.8691C137.304 6.31565 139.847 2.3891 144.112 2.3891C148.377 2.3891 150.897 6.30772 150.897 12.8691C150.897 19.4306 148.361 23.3333 144.112 23.3333Z" fill="#0D0802"/>
<path d="M37.6991 0.915161C31.7812 0.915161 25.7871 5.02001 25.7871 12.8691C25.7871 20.7183 31.9618 24.8231 37.6991 24.8231C43.4365 24.8231 49.587 20.7183 49.587 12.8691C49.587 5.02001 43.4244 0.915161 37.6991 0.915161ZM37.6991 23.3333C33.4342 23.3333 30.8905 19.4226 30.8905 12.8691C30.8905 6.31565 33.4342 2.3891 37.6991 2.3891C41.964 2.3891 44.4836 6.30772 44.4836 12.8691C44.4836 19.4306 41.948 23.3333 37.6991 23.3333Z" fill="#0D0802"/>
<path d="M77.4513 1.50159H68.0589V2.76157L72.3238 3.21326V17.6357L59.2482 1.50159H52.223V2.77345L54.8429 3.02307L55.4006 3.70854V22.5488L52.0986 22.9688V24.2367H61.491V22.9728L57.2261 22.5013V5.96303L72.1633 24.3913H74.1493V3.2093L77.4513 2.76949V1.50159Z" fill="#0D0802"/>
<path d="M125.87 22.4696L125.774 22.5092C124.45 23.0679 123.077 23.3492 121.701 23.3492C116.401 23.3492 113.107 19.3394 113.107 12.881C113.107 6.42263 116.57 2.37722 121.93 2.37722C123.146 2.37722 124.293 2.64268 125.436 3.18947L125.525 3.23305L126.44 7.4528H128.738L128.594 2.53967C126.383 1.4461 123.976 0.915161 121.24 0.915161C113.448 0.915161 108.008 5.83226 108.008 12.8691C108.008 19.906 113.155 24.8231 121.119 24.8231C124.016 24.8231 126.644 24.2684 128.923 23.1709L129.067 18.2855H126.769L125.87 22.4696Z" fill="#0D0802"/>
<path d="M100.93 22.1367L100.886 22.0932C99.9795 21.2254 99.169 20.4528 98.4107 19.7277L97.7568 19.1056L97.8651 18.967C99.7468 16.5183 100.934 14.248 101.841 11.3793L101.877 11.2605L104.67 10.8405V9.72315H96.854V10.8365L99.9233 11.2803L99.8711 11.4903C99.2533 14.0023 98.3786 16.0349 97.0306 18.0794L96.8982 18.2815L96.7216 18.1151C95.6544 17.0928 94.3384 15.8329 92.6734 14.2004L92.4006 13.931C91.217 12.7701 90.3584 11.9261 89.6723 11.2327L89.4717 11.0307L89.7365 10.9158C93.7406 9.15655 95.3736 7.52808 95.3736 5.30132C95.3736 2.65457 93.0345 1.01025 89.2671 1.01025C85.2469 1.01025 82.6471 2.9874 82.6471 6.05018C82.6471 7.91242 83.4295 9.63598 85.1025 11.4665L85.4797 11.8627L85.2148 11.9737C81.3311 13.614 79.4414 15.8051 79.4414 18.6658C79.4414 22.2318 82.6872 24.7201 87.3333 24.7201C90.4948 24.7201 93.0224 23.8128 94.856 22.0179L94.9964 21.8832L95.1368 22.0179C95.4979 22.3586 95.863 22.7033 96.2482 23.056C97.6765 24.2684 99.0206 24.7241 101.207 24.7241C102.186 24.7241 102.948 24.6329 104.393 24.3318L104.593 22.6994L100.93 22.1367ZM89.2109 1.95326C91.1207 1.95326 92.4006 3.21324 92.4006 5.09133C92.4006 6.77923 91.2812 8.47109 88.9742 10.266L88.8298 10.3769L88.7054 10.2462C88.2841 9.80239 87.911 9.39032 87.5339 8.95448C86.3904 7.55978 85.925 6.4464 85.925 5.10718C85.925 3.30833 87.3373 1.95326 89.2149 1.95326H89.2109ZM93.9372 21.1779C92.6533 22.0654 90.9482 22.5528 89.1347 22.5528C85.7725 22.5528 83.3292 20.4132 83.3292 17.4693C83.3292 15.508 84.2439 13.8359 85.9731 12.6433L86.1176 12.5442L86.2379 12.671C86.928 13.412 87.6663 14.2203 88.6051 15.2465L90.2461 17.0374C90.5951 17.3979 90.9522 17.7704 91.3133 18.1508C92.1518 19.0304 93.0224 19.9377 93.9653 20.8768L94.1338 21.0432L93.9372 21.1779Z" fill="#0D0802"/>
<path d="M22.7097 18.028C22.7097 14.8938 20.17 13.0118 15.1588 12.4294L13.7907 12.2709L15.1468 12.0371C19.179 11.3437 21.3134 9.54883 21.3134 6.85453C21.3134 3.45099 18.2 1.50159 12.7716 1.50159H0.40625V2.76157L3.6681 3.07854V3.25288C3.73631 6.17303 3.74033 9.02582 3.74033 12.1837V13.5546C3.74033 16.7363 3.73631 19.6009 3.67212 22.4735V22.6479L0.40625 22.9649V24.2248H11.7445C21.9193 24.2248 22.7097 19.4742 22.7097 18.0161V18.028ZM8.31816 11.5537C8.31816 8.97035 8.32618 5.97096 8.39038 3.10628V2.91213H11.3473C15.0625 2.91213 16.7958 4.26721 16.7958 7.17943C16.7958 10.3016 14.886 11.7518 10.7856 11.7518H8.31816V11.5537ZM8.39038 22.8222V22.6281C8.31816 19.5494 8.31816 16.3638 8.31816 13.2852V13.0871H10.9581C15.6924 13.0871 17.8951 14.6482 17.8951 18.0002C17.8951 20.1992 16.7196 22.8222 11.1267 22.8222H8.39038Z" fill="#0D0802"/>
<path d="M45.5589 41.4049H46.2409V34.8514H45.5589V41.4049ZM3.13867 41.4049H3.82073V34.8514H3.13867V41.4049ZM28.399 38.354H31.701V37.8072H28.399V35.418H31.9056V34.8514H27.741V41.4049H31.9136V40.8383H28.403V38.35L28.399 38.354ZM40.3431 40.1726C40.1465 39.9468 39.966 39.7368 39.7934 39.5347L38.9148 38.5204C39.3 38.4847 39.6209 38.4015 39.8697 38.2708C40.2067 38.0925 40.4474 37.8587 40.5919 37.5616C40.7323 37.2683 40.8045 36.9434 40.8045 36.5908C40.8045 36.1787 40.7202 35.842 40.5558 35.5884C40.3913 35.3308 40.1385 35.1446 39.8015 35.0257C39.4645 34.9069 39.0432 34.8474 38.5296 34.8474H36.2989V41.4009H36.9609V38.6393H38.2448L39.2398 39.8121C39.4604 40.0657 39.6851 40.3232 39.9098 40.5887C40.1345 40.8502 40.3712 41.1236 40.6119 41.4049H41.4144C41.2699 41.2345 41.1054 41.0443 40.9168 40.8304C40.7283 40.6164 40.5397 40.3945 40.3431 40.1687V40.1726ZM38.1886 38.1004H36.9609V35.4021H38.5015C38.6781 35.4021 38.8586 35.4101 39.0432 35.4338C39.2277 35.4537 39.4003 35.5012 39.5648 35.5804C39.7252 35.6557 39.8576 35.7786 39.9579 35.9489C40.0583 36.1193 40.1104 36.3531 40.1104 36.6542C40.1104 37.0029 40.0422 37.2842 39.9058 37.4982C39.7694 37.7121 39.5607 37.8666 39.2759 37.9617C38.991 38.0568 38.6299 38.1083 38.1926 38.1083L38.1886 38.1004ZM18.0878 35.4338H20.5072V41.4049H21.1772V35.4338H23.5925V34.8514H18.0838V35.4338H18.0878ZM13.3014 40.2638H13.2452L11.6644 38.1361C11.2712 37.6091 10.874 37.0742 10.4728 36.5314C10.0716 35.9886 9.65436 35.4299 9.22507 34.8474H8.60318V41.4009H9.24914V35.9569H9.30531L10.8941 38.1004C11.3716 38.7423 11.8129 39.3327 12.2101 39.8715C12.6073 40.4064 12.9844 40.9175 13.3455 41.4009H13.9554V34.8474H13.3094V40.2638H13.3014ZM85.6881 38.35H88.9901V37.8032H85.6881V35.414H89.1948V34.8474H85.0302V41.4009H89.2028V40.8343H85.6922V38.3461L85.6881 38.35ZM110.583 41.4009H111.265V34.8474H110.583V41.4009ZM105.6 39.19L104.738 36.9316C104.585 36.5274 104.445 36.1629 104.32 35.838C104.196 35.5131 104.068 35.1803 103.943 34.8435H103.041C102.912 35.1763 102.784 35.5052 102.659 35.8301C102.535 36.1589 102.391 36.5235 102.234 36.9236L101.368 39.1702C101.231 39.5228 101.087 39.8913 100.934 40.2796C100.786 40.6679 100.641 41.0404 100.501 41.393H101.191C101.339 40.9968 101.496 40.5926 101.652 40.1726C101.717 40.0023 101.781 39.8359 101.841 39.6694H105.095C105.159 39.8359 105.219 40.0062 105.287 40.1806C105.444 40.5966 105.592 41.0007 105.741 41.393H106.439C106.306 41.0443 106.17 40.6798 106.022 40.2955C105.873 39.9151 105.733 39.5427 105.596 39.1821L105.6 39.19ZM102.046 39.1544C102.066 39.0949 102.09 39.0355 102.11 38.98L103.446 35.4537H103.522L104.85 39.0117C104.866 39.0593 104.886 39.1068 104.902 39.1544H102.042H102.046ZM56.52 35.7191C56.2311 35.4061 55.8741 35.1644 55.4528 34.994C55.0315 34.8197 54.546 34.7325 54.0004 34.7325C53.2862 34.7325 52.6724 34.8831 52.1628 35.1803C51.6533 35.4774 51.2641 35.8855 50.9913 36.3967C50.7185 36.9078 50.5861 37.4823 50.5861 38.1163C50.5861 38.5719 50.6583 39.0038 50.8027 39.4119C50.9472 39.82 51.1638 40.1806 51.4487 40.4936C51.7375 40.8066 52.0946 41.0523 52.5239 41.2306C52.9532 41.4089 53.4547 41.5 54.0285 41.5C54.7266 41.5 55.3284 41.3534 55.8339 41.0562C56.3354 40.759 56.7246 40.3589 56.9934 39.8477C57.2622 39.3366 57.3987 38.7621 57.3987 38.1163C57.3987 37.6448 57.3224 37.205 57.174 36.7968C57.0255 36.3887 56.8049 36.0282 56.516 35.7191H56.52ZM56.5401 39.1662C56.4357 39.4991 56.2712 39.8002 56.0546 40.0657C55.8339 40.3311 55.5571 40.5411 55.2161 40.6917C54.879 40.8462 54.4738 40.9215 54.0044 40.9215C53.535 40.9215 53.1298 40.8462 52.7847 40.6957C52.4437 40.5451 52.1628 40.3391 51.9422 40.0776C51.7215 39.816 51.557 39.5149 51.4487 39.1781C51.3403 38.8413 51.2842 38.4887 51.2842 38.1163C51.2842 37.7438 51.3403 37.3912 51.4527 37.0583C51.565 36.7255 51.7335 36.4244 51.9542 36.1589C52.1789 35.8974 52.4597 35.6874 52.8008 35.5369C53.1418 35.3863 53.543 35.311 54.0004 35.311C54.4578 35.311 54.8389 35.3823 55.1759 35.5289C55.513 35.6716 55.7938 35.8736 56.0185 36.1272C56.2432 36.3848 56.4117 36.6819 56.528 37.0227C56.6404 37.3634 56.6965 37.728 56.6965 38.1202C56.6965 38.4847 56.6444 38.8334 56.5401 39.1702V39.1662ZM128.036 38.8572C127.904 38.6393 127.679 38.4451 127.366 38.2747C127.053 38.1044 126.62 37.934 126.07 37.7676C125.665 37.6408 125.332 37.5219 125.079 37.4031C124.822 37.2882 124.634 37.1534 124.513 37.0068C124.393 36.8602 124.333 36.674 124.333 36.4521C124.333 36.1867 124.405 35.9687 124.55 35.7984C124.694 35.628 124.887 35.5052 125.119 35.4259C125.356 35.3467 125.609 35.3071 125.878 35.3071C126.066 35.3071 126.267 35.3269 126.483 35.3665C126.696 35.4061 126.913 35.4655 127.129 35.5487C127.346 35.628 127.551 35.735 127.739 35.8618L127.815 35.2278C127.715 35.1684 127.595 35.105 127.45 35.0455C127.306 34.9861 127.145 34.9306 126.969 34.8831C126.792 34.8356 126.604 34.7959 126.411 34.7682C126.215 34.7405 126.018 34.7246 125.817 34.7246C125.34 34.7246 124.939 34.8039 124.614 34.9584C124.289 35.1129 124.04 35.3229 123.876 35.5844C123.711 35.8459 123.627 36.1431 123.627 36.468C123.627 36.7929 123.707 37.0782 123.872 37.3C124.036 37.5219 124.273 37.7082 124.582 37.8627C124.891 38.0172 125.268 38.1598 125.709 38.2906C126.094 38.4095 126.427 38.5283 126.7 38.6472C126.973 38.7661 127.182 38.9047 127.326 39.0672C127.47 39.2296 127.543 39.4317 127.543 39.6813C127.543 39.9864 127.47 40.2281 127.326 40.4064C127.182 40.5887 126.985 40.7194 126.74 40.8026C126.495 40.8858 126.223 40.9255 125.922 40.9255C125.661 40.9255 125.408 40.9017 125.163 40.8581C124.919 40.8106 124.686 40.7472 124.457 40.664C124.229 40.5808 124.008 40.4857 123.795 40.3747L123.719 40.9968C123.868 41.076 124.06 41.1553 124.301 41.2345C124.542 41.3138 124.806 41.3772 125.091 41.4247C125.376 41.4722 125.665 41.5 125.954 41.5C126.483 41.5 126.921 41.4168 127.258 41.2543C127.595 41.0919 127.848 40.87 128.004 40.5887C128.165 40.3113 128.245 39.9983 128.245 39.6536C128.245 39.3406 128.177 39.0751 128.044 38.8572H128.036ZM117.248 34.8474H116.569V41.4009H120.75V40.8185H117.244V34.8474H117.248ZM92.6492 35.4299H95.0685V41.4009H95.7385V35.4299H98.1538V34.8474H92.6452V35.4299H92.6492ZM65.78 40.1687C65.5834 39.9428 65.4028 39.7328 65.2303 39.5308L64.3517 38.5164C64.7368 38.4808 65.0578 38.3976 65.3066 38.2668C65.6436 38.0885 65.8843 37.8548 66.0287 37.5576C66.1692 37.2644 66.2414 36.9395 66.2414 36.5868C66.2414 36.1748 66.1571 35.838 65.9926 35.5844C65.8281 35.3269 65.5754 35.1406 65.2383 35.0218C64.9013 34.9029 64.4801 34.8435 63.9665 34.8435H61.7358V41.397H62.3978V38.6353H63.6816L64.6766 39.8081C64.8973 40.0617 65.122 40.3192 65.3467 40.5847C65.5714 40.8462 65.8081 41.1196 66.0488 41.4009H66.8512C66.7068 41.2306 66.5423 41.0404 66.3537 40.8264C66.1651 40.6124 65.9766 40.3906 65.78 40.1647V40.1687ZM63.6255 38.0964H62.3978V35.3982H63.9384C64.115 35.3982 64.2955 35.4061 64.4801 35.4299C64.6646 35.4497 64.8371 35.4972 65.0016 35.5765C65.1621 35.6518 65.2945 35.7746 65.3948 35.945C65.4951 36.1153 65.5473 36.3491 65.5473 36.6502C65.5473 36.9989 65.4791 37.2802 65.3427 37.4942C65.2062 37.7082 64.9976 37.8627 64.7128 37.9578C64.4279 38.0529 64.0668 38.1044 63.6295 38.1044L63.6255 38.0964ZM79.8264 35.7072C79.5456 35.4259 79.2005 35.212 78.7913 35.0654C78.3821 34.9188 77.9127 34.8474 77.3831 34.8474H75.0721V41.4009H77.1544C77.8003 41.4009 78.346 41.3177 78.7953 41.1473C79.2447 40.977 79.6058 40.7432 79.8826 40.4421C80.1594 40.1409 80.3641 39.7923 80.4925 39.3921C80.6208 38.9919 80.685 38.56 80.685 38.0964C80.685 37.5853 80.6128 37.1297 80.4684 36.7295C80.3239 36.3293 80.1113 35.9886 79.8264 35.7072ZM79.7141 39.4991C79.5336 39.9151 79.2367 40.244 78.8234 40.4857C78.4102 40.7273 77.8565 40.8502 77.1584 40.8502H75.7461V35.3982H77.2707C77.7401 35.3982 78.1453 35.4616 78.4904 35.5884C78.8314 35.7152 79.1123 35.8935 79.3329 36.1312C79.5536 36.3689 79.7181 36.6502 79.8264 36.9791C79.9348 37.308 79.9869 37.6765 79.9869 38.0846C79.9869 38.6115 79.8946 39.083 79.7141 39.4991Z" fill="#0D0802"/>
</svg>
