<svg width="48" height="81" viewBox="0 0 48 81" fill="none" xmlns="http://www.w3.org/2000/svg">
<g clip-path="url(#clip0_2006_149)">
<path d="M40.2402 50.6799C36.5579 50.6799 32.8281 53.245 32.8281 58.1498C32.8281 63.0547 36.6702 65.6197 40.2402 65.6197C43.8102 65.6197 47.6373 63.0547 47.6373 58.1498C47.6373 53.245 43.8027 50.6799 40.2402 50.6799ZM40.2402 64.6888C37.5864 64.6888 36.0037 62.245 36.0037 58.1498C36.0037 54.0546 37.5864 51.601 40.2402 51.601C42.894 51.601 44.4618 54.0497 44.4618 58.1498C44.4618 62.25 42.884 64.6888 40.2402 64.6888Z" fill="#0D0802"/>
<path d="M28.8898 64.149L28.8298 64.1738C28.006 64.5229 27.1522 64.6987 26.2959 64.6987C22.998 64.6987 20.9484 62.193 20.9484 58.1597C20.9484 54.1264 23.1029 51.596 26.4382 51.596C27.1946 51.596 27.9086 51.7619 28.6201 52.1036L28.6751 52.1308L29.2443 54.7677H30.6748L30.5849 51.6975C29.2093 51.0142 27.7114 50.6824 26.0088 50.6824C21.1631 50.6824 17.7754 53.755 17.7754 58.1523C17.7754 62.5495 20.9784 65.6222 25.9339 65.6222C27.7364 65.6222 29.3716 65.2755 30.7896 64.5897L30.8795 61.5369H29.449L28.8898 64.1515V64.149Z" fill="#0D0802"/>
<path d="M13.3712 63.9436L13.3437 63.9164C12.7795 63.3742 12.2752 62.8914 11.8034 62.4383L11.3965 62.0495L11.4639 61.9629C12.6347 60.4328 13.3737 59.014 13.9379 57.2215L13.9604 57.1472L15.6979 56.8847V56.1865H10.8348V56.8823L12.7446 57.1596L12.7121 57.2908C12.3277 58.8605 11.7834 60.1307 10.9446 61.4083L10.8622 61.5346L10.7524 61.4306C10.0883 60.7918 9.26946 60.0044 8.23342 58.9843L8.06366 58.816C7.3272 58.0905 6.79295 57.5632 6.36605 57.1299L6.24122 57.0036L6.40599 56.9318C8.89749 55.8325 9.91356 54.8149 9.91356 53.4234C9.91356 51.7695 8.45811 50.7419 6.1139 50.7419C3.61242 50.7419 1.99469 51.9774 1.99469 53.8913C1.99469 55.055 2.48151 56.1321 3.52255 57.2759L3.75722 57.5235L3.59245 57.5929C1.17585 58.6179 0 59.9871 0 61.7747C0 64.0031 2.01966 65.558 4.91059 65.558C6.87783 65.558 8.45062 64.991 9.59151 63.8694L9.67889 63.7852L9.76627 63.8694C9.99095 64.0823 10.2181 64.2977 10.4578 64.5181C11.3465 65.2757 12.1829 65.5604 13.5435 65.5604C14.1526 65.5604 14.6269 65.5035 15.5257 65.3153L15.6505 64.2952L13.3712 63.9436ZM6.07895 51.3312C7.26728 51.3312 8.06366 52.1186 8.06366 53.2922C8.06366 54.3469 7.36714 55.4041 5.93166 56.5257L5.84178 56.5951L5.76439 56.5134C5.50226 56.236 5.27009 55.9786 5.03542 55.7062C4.32392 54.8347 4.03433 54.1389 4.03433 53.3021C4.03433 52.178 4.91309 51.3312 6.08145 51.3312H6.07895ZM9.01982 63.3445C8.22094 63.8991 7.15993 64.2036 6.03152 64.2036C3.93946 64.2036 2.4191 62.8666 2.4191 61.027C2.4191 59.8014 2.9883 58.7566 4.06428 58.0113L4.15416 57.9494L4.22905 58.0286C4.65845 58.4916 5.1178 58.9967 5.70198 59.638L6.72305 60.7571C6.94024 60.9824 7.16243 61.2152 7.38711 61.4528C7.90888 62.0025 8.45062 62.5695 9.03729 63.1563L9.14214 63.2603L9.01982 63.3445Z" fill="#0D0802"/>
<path d="M23.2675 34.1282C19.5852 34.1282 15.8555 36.6932 15.8555 41.5981C15.8555 46.5029 19.6976 49.068 23.2675 49.068C26.8375 49.068 30.6646 46.5029 30.6646 41.5981C30.6646 36.6932 26.83 34.1282 23.2675 34.1282ZM23.2675 48.137C20.6138 48.137 19.031 45.6933 19.031 41.5981C19.031 37.5029 20.6138 35.0492 23.2675 35.0492C25.9213 35.0492 27.4891 37.4979 27.4891 41.5981C27.4891 45.6982 25.9113 48.137 23.2675 48.137Z" fill="#0D0802"/>
<path d="M47.9999 34.4946H42.1581V35.2845L44.8094 35.5667V44.5766L36.6734 34.4946H32.302V35.2894L33.9347 35.4454L34.2792 35.8762V47.6493L32.2246 47.9117V48.7016H38.0689V47.9117L35.4151 47.6196V37.2825L44.7096 48.7981H45.9453V35.5618L47.9999 35.2869V34.4946Z" fill="#0D0802"/>
<path d="M13.9405 44.8218C13.9405 42.8633 12.3602 41.6872 9.24209 41.3233L8.39079 41.2242L9.2346 41.0781C11.7436 40.6449 13.0717 39.5233 13.0717 37.8396C13.0717 35.7128 11.1344 34.4946 7.75668 34.4946H0.0625V35.282L2.09215 35.4801V35.589C2.13459 37.4138 2.13708 39.1964 2.13708 41.1698V42.0264C2.13708 44.0146 2.13459 45.8047 2.09464 47.5998V47.7087L0.0625 47.9068V48.6941H7.11758C13.4487 48.6941 13.9405 45.7255 13.9405 44.8143V44.8218ZM4.98558 40.7761C4.98558 39.1618 4.99057 37.2875 5.03051 35.4974V35.3761H6.87043C9.18218 35.3761 10.2607 36.2228 10.2607 38.0426C10.2607 39.9937 9.07233 40.8999 6.52092 40.8999H4.98558V40.7761ZM5.03051 47.8176V47.6963C4.98558 45.7725 4.98558 43.7819 4.98558 41.8581V41.7343H6.62827C9.57412 41.7343 10.9447 42.7098 10.9447 44.8044C10.9447 46.1786 10.2132 47.8176 6.73312 47.8176H5.03051Z" fill="#0D0802"/>
<path d="M37.0045 26.1334L36.8797 19.1958L10.9961 19.6737L11.1134 26.2299L37.0045 26.1334Z" fill="#CAAA8D"/>
<path d="M14.3008 4.18901C14.3433 4.34499 14.3832 4.50345 14.4231 4.66191C14.4731 4.81542 14.528 4.96893 14.5829 5.11996C14.6378 5.27347 14.6953 5.4245 14.7477 5.57801C14.9923 6.17966 15.2944 6.75903 15.6439 7.30373C15.9959 7.84844 16.3979 8.36096 16.8422 8.82891C17.7335 9.76977 18.802 10.5225 19.9703 11.0474C21.1387 11.5722 22.4069 11.8694 23.6951 11.8991C24.9808 11.9337 26.274 11.701 27.4873 11.2256C28.7006 10.7502 29.834 10.0347 30.8001 9.10622C31.7113 8.24211 32.4678 7.19727 33.032 6.04596C33.5962 4.89217 33.9682 3.62944 34.1105 2.32958C31.0248 2.25777 26.4063 2.15131 22.3445 2.05722C18.2827 1.96314 13.8789 1.73535 13.8789 1.73535C13.8839 2.32958 14.0112 3.05255 14.156 3.62944C14.156 3.62944 14.2559 4.03302 14.2958 4.19148L14.3008 4.18901Z" fill="#EACC9C"/>
<path d="M38.2116 14.2192H9.78906V15.9301H38.2116V14.2192Z" fill="#0D0802"/>
<path d="M9.78906 26.6136L38.2116 26.7498V25.2964L11.0173 25.3979L10.8925 18.5074L38.2116 18.0494L9.95133 17.574L9.78906 26.6136Z" fill="#0D0802"/>
<path d="M36.2649 0.5V0.863963C36.2 3.88956 34.9093 6.85078 32.7249 8.98999C31.6364 10.0645 30.3157 10.9435 28.9052 11.5377C27.4922 12.1344 25.9244 12.4662 24.3691 12.5009C22.8038 12.5331 21.211 12.2582 19.7606 11.7135C18.2976 11.1663 16.9096 10.3196 15.7487 9.26234C14.5854 8.20759 13.6092 6.9003 12.9202 5.47911C12.3136 4.22876 11.9241 2.85214 11.7918 1.4978L11.7843 1.43343C11.7593 1.19326 11.7369 0.943193 11.7344 0.722834C12.0464 0.722834 12.7879 0.720358 13.8364 0.715407V0.73769C13.8414 1.27002 13.9513 1.97566 14.1335 2.6714C14.1335 2.6714 14.2384 3.07745 14.2833 3.23343L14.3058 3.31266C14.3407 3.44389 14.3782 3.57264 14.4131 3.70386C14.4705 3.87223 14.5279 4.02573 14.5879 4.18172L14.6203 4.2659C14.6678 4.3897 14.7152 4.51349 14.7601 4.63977C15.0272 5.25875 15.3493 5.84802 15.7263 6.40263C16.1057 6.95972 16.5376 7.48214 17.0145 7.95257C17.9681 8.90581 19.0965 9.66344 20.3722 10.2057C21.6529 10.7504 22.9985 11.0401 24.3691 11.0698C25.7472 11.1069 27.1177 10.8767 28.4384 10.3864C29.7665 9.89371 30.9623 9.17073 31.9934 8.23483C32.967 7.36082 33.7734 6.31598 34.3875 5.12753C35.0042 3.9366 35.3936 2.66645 35.5459 1.3542L35.5684 1.17345L35.3836 1.1685C32.1257 1.0967 27.2451 0.990236 22.9561 0.89615C20.8715 0.851583 18.6846 0.772353 16.997 0.703027C22.5392 0.673316 31.0123 0.613893 35.9378 0.509904L36.2699 0.504952L36.2649 0.5Z" fill="#0D0802"/>
<path d="M30.9947 70.5466H30.5703V74.6418H30.9947V70.5466Z" fill="#0D0802"/>
<path d="M4.60018 70.5466H4.17578V74.6418H4.60018V70.5466Z" fill="#0D0802"/>
<path d="M19.8924 72.7354H21.9495V72.3912H19.8924V70.8982H22.0743V70.5466H19.4805V74.6418H22.0768V74.2878H19.8924V72.7354Z" fill="#0D0802"/>
<path d="M27.6821 74.2829C27.5647 74.1492 27.4474 74.0105 27.3251 73.8719C27.2027 73.7308 27.0904 73.5995 26.983 73.4733L26.4363 72.8394C26.676 72.8171 26.8757 72.7651 27.0305 72.6834C27.2402 72.572 27.39 72.4259 27.4798 72.2402C27.5672 72.057 27.6122 71.854 27.6122 71.6336C27.6122 71.3761 27.5597 71.1657 27.4574 71.0047C27.355 70.8438 27.1977 70.7274 26.988 70.6532C26.7783 70.5789 26.5162 70.5417 26.1966 70.5417H24.8086V74.6369H25.2205V72.9112H26.0194L26.6385 73.6441C26.7758 73.8026 26.9156 73.9635 27.0554 74.1294C27.1952 74.2928 27.3425 74.4636 27.4923 74.6394H27.9916C27.9017 74.533 27.7994 74.4141 27.6821 74.2804V74.2829ZM25.9869 72.577H25.223V70.8908H26.1817C26.2915 70.8908 26.4039 70.8958 26.5187 70.9107C26.6335 70.923 26.7409 70.9527 26.8432 71.0023C26.9431 71.0493 27.0255 71.1261 27.0879 71.2325C27.1503 71.339 27.1828 71.4851 27.1828 71.6732C27.1828 71.8911 27.1403 72.0669 27.0554 72.2006C26.9706 72.3343 26.8407 72.4309 26.6635 72.4903C26.4862 72.5497 26.2616 72.5819 25.9894 72.5819L25.9869 72.577Z" fill="#0D0802"/>
<path d="M13.4805 70.9106H14.9859V74.6418H15.4028V70.9106H16.9081V70.5466H13.4805V70.9106Z" fill="#0D0802"/>
<path d="M10.5015 73.9288H10.4666L9.48295 72.5992C9.23829 72.2699 8.99114 71.9357 8.74149 71.5965C8.49184 71.2573 8.23221 70.9082 7.96508 70.5442H7.57812V74.6394H7.98006V71.2375H8.01501L9.00362 72.5769C9.3007 72.978 9.57532 73.3469 9.82247 73.6837C10.0696 74.0179 10.3043 74.3373 10.529 74.6394H10.9084V70.5442H10.5065V73.9288H10.5015Z" fill="#0D0802"/>
<path d="M37.8049 71.7624C37.7125 71.5074 37.5752 71.282 37.3954 71.0889C37.2157 70.8933 36.9935 70.7423 36.7314 70.6358C36.4692 70.5269 36.1672 70.4724 35.8276 70.4724C35.3833 70.4724 35.0013 70.5665 34.6842 70.7522C34.3672 70.9379 34.125 71.1929 33.9553 71.5123C33.788 71.8317 33.7031 72.1907 33.7031 72.5869C33.7031 72.8716 33.7481 73.1415 33.8379 73.3965C33.9278 73.6515 34.0626 73.8768 34.2399 74.0724C34.4196 74.268 34.6418 74.4215 34.9089 74.533C35.1761 74.6444 35.4881 74.7013 35.8451 74.7013C36.2795 74.7013 36.654 74.6097 36.9685 74.424C37.2806 74.2383 37.5228 73.9882 37.69 73.6688C37.8573 73.3495 37.9422 72.9904 37.9422 72.5869C37.9422 72.2922 37.8947 72.0174 37.8024 71.7624H37.8049ZM37.4104 73.243C37.3455 73.451 37.2431 73.6391 37.1083 73.805C36.971 73.9709 36.7988 74.1021 36.5866 74.1962C36.3769 74.2928 36.1247 74.3398 35.8326 74.3398C35.5405 74.3398 35.2884 74.2928 35.0737 74.1987C34.8615 74.1046 34.6867 73.9759 34.5494 73.8125C34.4121 73.649 34.3098 73.4609 34.2424 73.2504C34.175 73.04 34.14 72.8196 34.14 72.5869C34.14 72.3541 34.175 72.1338 34.2449 71.9258C34.3148 71.7153 34.4196 71.5296 34.5569 71.3638C34.6967 71.2003 34.8715 71.0691 35.0837 70.975C35.2959 70.8809 35.5455 70.8339 35.8301 70.8339C36.1147 70.8339 36.3519 70.8785 36.5616 70.9701C36.7713 71.0592 36.9461 71.1855 37.0859 71.3439C37.2257 71.5049 37.3305 71.6906 37.4029 71.9035C37.4728 72.1164 37.5078 72.3442 37.5078 72.5893C37.5078 72.8171 37.4753 73.035 37.4104 73.2455V73.243Z" fill="#0D0802"/>
<path d="M43.5121 74.2829C43.3948 74.1492 43.2775 74.0105 43.1551 73.8719C43.0328 73.7308 42.9205 73.5995 42.8131 73.4733L42.2664 72.8394C42.506 72.8171 42.7058 72.7651 42.8605 72.6834C43.0703 72.572 43.22 72.4259 43.3099 72.2402C43.3973 72.057 43.4422 71.854 43.4422 71.6336C43.4422 71.3761 43.3898 71.1657 43.2874 71.0047C43.1851 70.8438 43.0278 70.7274 42.8181 70.6532C42.6084 70.5789 42.3463 70.5417 42.0267 70.5417H40.6387V74.6369H41.0506V72.9112H41.8495L42.4686 73.6441C42.6059 73.8026 42.7457 73.9635 42.8855 74.1294C43.0253 74.2928 43.1726 74.4636 43.3224 74.6394H43.8217C43.7318 74.533 43.6295 74.4141 43.5121 74.2804V74.2829ZM41.817 72.577H41.0531V70.8908H42.0117C42.1216 70.8908 42.2339 70.8958 42.3488 70.9107C42.4636 70.923 42.571 70.9527 42.6733 71.0023C42.7732 71.0493 42.8556 71.1261 42.918 71.2325C42.9804 71.339 43.0128 71.4851 43.0128 71.6732C43.0128 71.8911 42.9704 72.0669 42.8855 72.2006C42.8006 72.3343 42.6708 72.4309 42.4936 72.4903C42.3163 72.5497 42.0916 72.5819 41.8195 72.5819L41.817 72.577Z" fill="#0D0802"/>
<path d="M14.0643 78.5342H16.1189V78.1925H14.0643V76.6995H16.2437V76.3455H13.6523V80.4431H16.2487V80.0891H14.0643V78.5342Z" fill="#0D0802"/>
<path d="M29.9791 76.3455H29.5547V80.4407H29.9791V76.3455Z" fill="#0D0802"/>
<path d="M26.7189 79.7573C26.6265 79.5196 26.5392 79.2869 26.4543 79.0616L25.9175 77.6503C25.8227 77.3977 25.7353 77.1699 25.6579 76.9669C25.5805 76.7639 25.5006 76.5584 25.4232 76.3455H24.8615C24.7816 76.5534 24.7018 76.7589 24.6244 76.962C24.547 77.1675 24.4571 77.3953 24.3597 77.6453L23.8205 79.0492C23.7356 79.2695 23.6457 79.4998 23.5509 79.7424C23.4585 79.9851 23.3686 80.2178 23.2812 80.4382H23.7106C23.803 80.1906 23.9004 79.938 23.9977 79.6756C24.0377 79.5691 24.0776 79.4651 24.1151 79.3612H26.1397C26.1797 79.4651 26.2171 79.5716 26.2596 79.6805C26.3569 79.9405 26.4493 80.1931 26.5417 80.4382H26.9761C26.8937 80.2203 26.8088 79.9925 26.7164 79.7524L26.7189 79.7573ZM24.2399 79.0368C24.2524 78.9997 24.2674 78.9625 24.2798 78.9279L25.1112 76.7243H25.1586L25.9849 78.9477C25.9949 78.9774 26.0074 79.0071 26.0174 79.0368H24.2374H24.2399Z" fill="#0D0802"/>
<path d="M40.4175 78.8512C40.3351 78.715 40.1953 78.5937 40.0006 78.4872C39.8058 78.3807 39.5362 78.2743 39.1942 78.1703C38.942 78.0911 38.7348 78.0168 38.5776 77.9425C38.4178 77.8707 38.3004 77.7865 38.2256 77.6949C38.1507 77.6033 38.1132 77.4869 38.1132 77.3483C38.1132 77.1824 38.1581 77.0462 38.248 76.9397C38.3379 76.8333 38.4577 76.7565 38.6025 76.707C38.7498 76.6575 38.9071 76.6327 39.0744 76.6327C39.1917 76.6327 39.3165 76.6451 39.4513 76.6699C39.5836 76.6946 39.7185 76.7318 39.8533 76.7838C39.9881 76.8358 40.1154 76.9001 40.2327 76.9818L40.2802 76.5857C40.2178 76.5485 40.1429 76.5089 40.053 76.4718C39.9631 76.4347 39.8632 76.4 39.7534 76.3703C39.6436 76.3406 39.5262 76.3158 39.4064 76.2985C39.2841 76.2811 39.1617 76.2712 39.0369 76.2712C38.7398 76.2712 38.4902 76.3208 38.288 76.4173C38.0857 76.5139 37.931 76.6451 37.8286 76.8085C37.7263 76.9719 37.6738 77.1576 37.6738 77.3607C37.6738 77.5637 37.7238 77.7419 37.8261 77.8806C37.9285 78.0193 38.0758 78.1356 38.268 78.2322C38.4602 78.3287 38.6949 78.4179 38.9695 78.4996C39.2092 78.5739 39.4164 78.6481 39.5861 78.7224C39.7559 78.7967 39.8857 78.8834 39.9756 78.9849C40.0655 79.0864 40.1104 79.2127 40.1104 79.3686C40.1104 79.5593 40.0655 79.7103 39.9756 79.8217C39.8857 79.9356 39.7634 80.0173 39.6111 80.0693C39.4588 80.1213 39.2891 80.1461 39.1018 80.1461C38.9395 80.1461 38.7823 80.1312 38.63 80.104C38.4777 80.0743 38.3329 80.0347 38.1906 79.9827C38.0483 79.9307 37.911 79.8713 37.7787 79.8019L37.7312 80.1906C37.8236 80.2402 37.9434 80.2897 38.0932 80.3392C38.243 80.3887 38.4078 80.4283 38.585 80.4581C38.7623 80.4878 38.942 80.5051 39.1218 80.5051C39.4513 80.5051 39.7234 80.4531 39.9332 80.3516C40.1429 80.2501 40.3001 80.1114 40.3975 79.9356C40.4974 79.7623 40.5473 79.5667 40.5473 79.3513C40.5473 79.1557 40.5048 78.9898 40.4225 78.8536L40.4175 78.8512Z" fill="#0D0802"/>
<path d="M33.7007 76.3455H33.2812V80.4431H35.8826V80.0767H33.7007V76.3455Z" fill="#0D0802"/>
<path d="M18.3965 76.7094H19.9044V80.4431H20.3213V76.7094H21.8242V76.3455H18.3965V76.7094Z" fill="#0D0802"/>
<path d="M10.8168 77.5215C10.7269 77.2715 10.5946 77.0585 10.4173 76.8827C10.2426 76.7069 10.0279 76.5732 9.77323 76.4816C9.51859 76.39 9.2265 76.3455 8.89696 76.3455H7.45898V80.4407H8.75466C9.1566 80.4407 9.49612 80.3887 9.77573 80.2822C10.0553 80.1757 10.28 80.0297 10.4523 79.8415C10.6245 79.6533 10.7519 79.4354 10.8317 79.1854C10.9116 78.9353 10.9516 78.6654 10.9516 78.3757C10.9516 78.0563 10.9066 77.7716 10.8168 77.5215ZM10.3474 79.2522C10.2351 79.5122 10.0503 79.7177 9.7932 79.8687C9.53606 80.0198 9.19155 80.0965 8.75716 80.0965H7.8759V76.6896H8.82456C9.11665 76.6896 9.3688 76.7292 9.5835 76.8085C9.7957 76.8877 9.97045 76.9991 10.1078 77.1477C10.2451 77.2962 10.3474 77.472 10.4148 77.6775C10.4822 77.883 10.5147 78.1133 10.5147 78.3683C10.5147 78.6976 10.4573 78.9922 10.3474 79.2522Z" fill="#0D0802"/>
</g>
<defs>
<clipPath id="clip0_2006_149">
<rect width="48" height="80" fill="white" transform="translate(0 0.5)"/>
</clipPath>
</defs>
</svg>
